<svg xmlns="http://www.w3.org/2000/svg" viewBox="0 0 530.03 314.44"><defs><style>.a{fill:#cbbba0;}.b{fill:none;}.c{fill:#495961;}</style></defs><title>Dermacare_Logo_ohne</title><path class="a" d="M363.68,216.19H254.92l-23.72,0H228l0-3.23s0.13-11.21.13-15V61.13c0-10.26,11.77-18.3,26.79-18.3H363.68c6.81,0,23.48,0,23.48,0h3.18l0,3.18s0.11,11.17.11,15.17V197.88C390.48,208.15,378.71,216.19,363.68,216.19Zm-129.24-6.43,20.48,0H363.68c11.05,0,20.39-5.45,20.39-11.9V61.13c0-2.62,0-8.33-.08-11.93-5.19,0-15.37,0-20.31,0H254.92c-11.05,0-20.39,5.45-20.39,11.9V197.88C234.53,200.41,234.48,206.12,234.44,209.76Z" transform="translate(-34.99 -42.78)"/><path class="a" d="M349.6,182.3c-8.8,0-16.13-3.59-20.85-10.43-3.91-5.7-5.38-11.89-5.38-22.47s1.48-16.78,5.38-22.48c4.73-6.84,12.06-10.42,20.86-10.42,8.3,0,13.51,2.44,20.19,9.93l5.7-5.21c-8.47-9.28-15.14-12.06-25.89-12.06-21.35,0-34.53,15.32-34.53,40.23s13.19,40.23,34.53,40.23c10.75,0,17.43-2.76,25.89-12l-5.69-5.22C363.1,179.86,357.9,182.3,349.6,182.3Z" transform="translate(-34.99 -42.78)"/><path class="a" d="M295.11,113.84c-5.21-3.46-10.52-4.67-17.59-4.67-21.33,0-34.54,15.31-34.54,40.23s13.2,40.23,34.54,40.23c10.75,0,17.42-2.77,25.9-12l-5.7-5.22c-6.68,7.5-11.88,9.94-20.2,9.94-8.8,0-16.13-3.58-20.85-10.43-3.91-5.7-5.38-11.89-5.38-22.48s1.46-16.78,5.38-22.47c4.73-6.85,12-10.43,20.85-10.43,7.2,0,12.07,1.85,17.59,7.21v24.16h8.32V69.35h-8.32v44.49Z" transform="translate(-34.99 -42.78)"/><path class="b" d="M121,319.53c-7.66,0-13.94,6.11-15,14.4h29.22C134.83,327.06,130.92,319.53,121,319.53Z" transform="translate(-34.99 -42.78)"/><path class="b" d="M38.41,336.75c0,10,6.74,17.22,16,17.22,5.27,0,10.16-2.45,14.54-7.28V325.59c-4.13-3.69-9.65-6.05-14.17-6.05C45.61,319.53,38.41,327.1,38.41,336.75Z" transform="translate(-34.99 -42.78)"/><path class="b" d="M448,338.69a35.21,35.21,0,0,0-12-2.17c-8.07,0-11.68,4.47-11.68,8.91,0,3.94,2.62,8.54,10,8.54,6.52,0,11.25-4.42,13.62-7.26v-8Z" transform="translate(-34.99 -42.78)"/><path class="b" d="M329.92,338.69a35.2,35.2,0,0,0-12-2.17c-8.07,0-11.68,4.47-11.68,8.91,0,3.94,2.62,8.54,10,8.54,6.52,0,11.25-4.42,13.62-7.26v-8Z" transform="translate(-34.99 -42.78)"/><path class="b" d="M547.32,319.53c-7.66,0-13.94,6.11-15,14.4h29.21C561.11,327.06,557.2,319.53,547.32,319.53Z" transform="translate(-34.99 -42.78)"/><path class="c" d="M72.41,288H61.13v3.15H69v30.42c-3.72-2.77-9-5.3-14.27-5.3-11.06,0-19.73,9-19.73,20.47,0,11.67,8.32,20.47,19.36,20.47A21.64,21.64,0,0,0,69,351.09v5.58H79.71v-3.24h-7.3V288ZM69,325.59v21.11C64.6,351.53,59.71,354,54.44,354c-9.28,0-16-7.24-16-17.22,0-9.66,7.2-17.22,16.39-17.22C59.33,319.53,64.85,321.9,69,325.59Z" transform="translate(-34.99 -42.78)"/><path class="c" d="M121,316.29c-10.39,0-18.53,8.87-18.53,20.19,0,12.41,8,20.74,20,20.74a24.45,24.45,0,0,0,13.72-4.16l0.42-.29,0.3-4.09L135.1,350a21.75,21.75,0,0,1-12.49,4c-10.06,0-16.39-6.42-16.66-16.8h32.4l0.24-.73a3.54,3.54,0,0,0,.14-1.16C138.73,322.16,129.84,316.29,121,316.29Zm-15,17.64c1.05-8.28,7.33-14.4,15-14.4,9.89,0,13.8,7.52,14.23,14.4H106Z" transform="translate(-34.99 -42.78)"/><path class="c" d="M184,316.29c-3.83,0-7.78,2.49-11.12,6.95v-6.39H162.18v3.25h7.3v33.33h-7.3v3.24h18.48v-3.24H172.9V328.65c3.56-5.86,7.17-8.89,10.71-9,0,0.07,0,.14,0,0.22a2.66,2.66,0,0,0,2.64,2.74,2.6,2.6,0,0,0,2.64-2.74C188.88,318.08,187.22,316.29,184,316.29Z" transform="translate(-34.99 -42.78)"/><path class="c" d="M274.05,331.12a20.3,20.3,0,0,0-1.5-8.7c-2-4.07-5.56-6.13-10.47-6.13-6.59,0-11.91,4.54-15.11,8.18a15.12,15.12,0,0,0-.85-2.23c-1.92-3.84-5.57-6-10.28-6-6.09,0-11.25,4.09-14.54,7.56v-7H210.58v3.25h7.3v33.33h-7.3v3.24H228.7v-3.24H221.3V328.54c2.8-3.46,8.2-8.91,14.45-8.91,3.63,0,6.13,1.49,7.43,4.45,0.84,1.86,1,4.11,1,7.13v22.21h-7.3v3.24H255v-3.24h-7.39V328.54c3.34-4.13,8.47-8.91,14.36-8.91,3.54,0,6.15,1.52,7.52,4.36a18.67,18.67,0,0,1,1.11,7.23v22.21h-7.39v3.24h18.12v-3.24h-7.3V331.12Z" transform="translate(-34.99 -42.78)"/><path class="c" d="M333.35,329.55c0-3.8-.76-6.43-2.44-8.5-2.35-3.07-6.49-4.76-11.65-4.76-8.55,0-14,5-14,8.37a2.67,2.67,0,0,0,2.64,2.82,2.52,2.52,0,0,0,2.55-2.55,3.17,3.17,0,0,0-.65-1.93c1.29-1.48,4.32-3.46,9.46-3.46,3.93,0,7.16,1.26,8.87,3.48,1.28,1.59,1.8,3.52,1.8,6.63v5.69a37.56,37.56,0,0,0-12-2.05c-8.9,0-15.12,5-15.12,12.25,0,5.82,4.16,11.7,13.45,11.7,6.24,0,11-3.41,13.71-6.09v5.53h10.63v-3.24h-7.3V329.55ZM316.3,354c-7.4,0-10-4.6-10-8.54,0-4.43,3.61-8.91,11.68-8.91a35.2,35.2,0,0,1,12,2.17v8C327.56,349.56,322.83,354,316.3,354Z" transform="translate(-34.99 -42.78)"/><path class="c" d="M391.81,328.26a2.56,2.56,0,0,0,2.54,2.64c1.66,0,2.74-1.25,2.74-3.19,0-5.4-6.24-11.41-15.2-11.41-11,0-19.64,9.15-19.64,20.84,0,11.83,8.45,20.1,20.56,20.1a21.53,21.53,0,0,0,13.12-4.1l0.42-.32v-3.92l-1.73,1.35A18.53,18.53,0,0,1,382.9,354c-10.14,0-17.23-6.93-17.23-16.85s7.12-17.59,16.21-17.59c5.87,0,10.21,3,11.45,6.14A2.85,2.85,0,0,0,391.81,328.26Z" transform="translate(-34.99 -42.78)"/><path class="c" d="M451.4,329.55c0-3.8-.76-6.43-2.44-8.5-2.35-3.07-6.49-4.76-11.65-4.76-8.55,0-14,5-14,8.37a2.68,2.68,0,0,0,2.64,2.82,2.52,2.52,0,0,0,2.55-2.55,3.14,3.14,0,0,0-.64-1.94c1.29-1.48,4.33-3.46,9.46-3.46,3.93,0,7.16,1.26,8.87,3.48,1.28,1.6,1.8,3.52,1.8,6.63v5.69a37.56,37.56,0,0,0-12-2.05c-8.9,0-15.11,5-15.11,12.25,0,5.82,4.16,11.7,13.45,11.7,6.24,0,11-3.41,13.71-6.09v5.53H458.7v-3.24h-7.3V329.55Zm-17,24.42c-7.39,0-10-4.6-10-8.54,0-4.43,3.61-8.91,11.68-8.91a35.21,35.21,0,0,1,12,2.17v8C445.61,349.56,440.87,354,434.35,354Z" transform="translate(-34.99 -42.78)"/><path class="c" d="M502.15,316.29c-3.84,0-7.78,2.49-11.13,6.95v-6.39H480.3v3.25h7.3v33.33h-7.3v3.24h18.49v-3.24H491V328.65c3.56-5.86,7.17-8.89,10.71-9,0,0.07,0,.14,0,0.22a2.66,2.66,0,0,0,2.63,2.74,2.6,2.6,0,0,0,2.65-2.74C507,318.08,505.34,316.29,502.15,316.29Z" transform="translate(-34.99 -42.78)"/><path class="c" d="M547.32,316.29c-10.39,0-18.53,8.87-18.53,20.19,0,12.41,8,20.74,20,20.74a24.49,24.49,0,0,0,13.73-4.16l0.43-.29,0.28-4.08L561.38,350a21.76,21.76,0,0,1-12.49,4c-10.05,0-16.38-6.42-16.65-16.8h32.41l0.24-.75a3.64,3.64,0,0,0,.14-1.15C565,322.16,556.13,316.29,547.32,316.29Zm-15,17.64c1.05-8.28,7.32-14.4,15-14.4,9.88,0,13.79,7.52,14.22,14.4H532.33Z" transform="translate(-34.99 -42.78)"/></svg>